<svg width="12" height="11" viewBox="0 0 12 11" fill="none" xmlns="http://www.w3.org/2000/svg">
<path d="M9.83685 5.83369C10.0601 5.61046 10.0601 5.24794 9.83685 5.02472L6.97955 2.16741C6.75632 1.94419 6.3938 1.94419 6.17058 2.16741C5.94735 2.39064 5.94735 2.75316 6.17058 2.97639L8.05461 4.85864L2.57573 4.85864C2.25964 4.85864 2.00427 5.11401 2.00427 5.4301C2.00427 5.74619 2.25964 6.00156 2.57573 6.00156L8.05282 6.00156L6.17236 7.88381C5.94914 8.10703 5.94914 8.46955 6.17236 8.69278C6.39559 8.91601 6.75811 8.91601 6.98134 8.69278L9.83864 5.83548L9.83685 5.83369Z" fill="white"/>
</svg>
