<svg width="15" height="12" viewBox="0 0 15 12" fill="none" xmlns="http://www.w3.org/2000/svg">
<g clip-path="url(#clip0_8_56)">
<path opacity="0.9" d="M0.913383 0.119304C0.669632 -0.0728831 0.315726 -0.0283518 0.123539 0.215398C-0.0686488 0.459148 -0.0241175 0.813055 0.219632 1.00524L14.0946 11.8802C14.3384 12.0724 14.6923 12.0279 14.8845 11.7841C15.0767 11.5404 15.0321 11.1865 14.7884 10.9943L12.3228 9.06306C13.2509 8.11149 13.879 7.04509 14.1954 6.28805C14.2728 6.1029 14.2728 5.89665 14.1954 5.71149C13.8462 4.87477 13.1126 3.65602 12.0157 2.63884C10.9142 1.61227 9.39776 0.749773 7.50401 0.749773C5.90557 0.749773 4.57432 1.36618 3.53604 2.17477L0.913383 0.119304ZM4.45245 2.89196C5.30088 2.28962 6.32041 1.87477 7.50401 1.87477C9.03213 1.87477 10.2884 2.56852 11.2517 3.46149C12.154 4.30055 12.7774 5.29665 13.0962 5.99977C12.8009 6.65602 12.2384 7.5654 11.4345 8.36462L10.1735 7.37555C10.3868 6.96305 10.5064 6.49665 10.5064 5.99977C10.5064 4.34274 9.16338 2.99977 7.50635 2.99977C6.75166 2.99977 6.06026 3.27868 5.53291 3.73805L4.45245 2.89196ZM9.25948 6.66071L7.34932 5.16305C7.44776 4.96384 7.50401 4.73649 7.50401 4.49977C7.50401 4.37087 7.4876 4.2443 7.45713 4.12477C7.47354 4.12477 7.4876 4.12477 7.50401 4.12477C8.53994 4.12477 9.37901 4.96384 9.37901 5.99977C9.37901 6.2318 9.33682 6.45446 9.25948 6.66071ZM10.4618 10.4881L9.47979 9.71462C8.88213 9.97009 8.22354 10.1248 7.50401 10.1248C5.97588 10.1248 4.71963 9.43102 3.75635 8.53805C2.85401 7.69899 2.23057 6.7029 1.91182 5.99977C2.10635 5.56852 2.41573 5.02712 2.83526 4.48102L1.95166 3.78493C1.41729 4.48102 1.03526 5.17477 0.812601 5.71149C0.735258 5.89665 0.735258 6.1029 0.812601 6.28805C1.16182 7.12477 1.89541 8.34352 2.99229 9.36071C4.09385 10.3873 5.61026 11.2498 7.50401 11.2498C8.62432 11.2498 9.61104 10.9474 10.4618 10.4881ZM8.39932 8.86384L7.08213 7.8279C6.53135 7.70134 6.07198 7.33102 5.82354 6.83649L4.50869 5.80055C4.50401 5.86618 4.50166 5.9318 4.50166 5.99977C4.50166 7.6568 5.84463 8.99977 7.50166 8.99977C7.81338 8.99977 8.11338 8.9529 8.39698 8.86384H8.39932Z" fill="black"/>
</g>
<defs>
<clipPath id="clip0_8_56">
<rect width="15" height="12" fill="white" transform="translate(0.00424194)"/>
</clipPath>
</defs>
</svg>
