<svg width="15" height="15" viewBox="0 0 15 15" fill="none" xmlns="http://www.w3.org/2000/svg">
<g clip-path="url(#clip0_8_49)">
<path d="M1.87927 3.28125C1.62146 3.28125 1.41052 3.49219 1.41052 3.75V4.39746L6.46423 8.5459C7.07068 9.04395 7.9408 9.04395 8.54724 8.5459L13.598 4.39746V3.75C13.598 3.49219 13.3871 3.28125 13.1293 3.28125H1.87927ZM1.41052 6.2168V11.25C1.41052 11.5078 1.62146 11.7188 1.87927 11.7188H13.1293C13.3871 11.7188 13.598 11.5078 13.598 11.25V6.2168L9.43787 9.63281C8.31287 10.5557 6.69275 10.5557 5.57068 9.63281L1.41052 6.2168ZM0.00427246 3.75C0.00427246 2.71582 0.845093 1.875 1.87927 1.875H13.1293C14.1635 1.875 15.0043 2.71582 15.0043 3.75V11.25C15.0043 12.2842 14.1635 13.125 13.1293 13.125H1.87927C0.845093 13.125 0.00427246 12.2842 0.00427246 11.25V3.75Z" fill="#2F2D2D" fill-opacity="0.4"/>
</g>
<defs>
<clipPath id="clip0_8_49">
<rect width="15" height="15" fill="white" transform="translate(0.00427246)"/>
</clipPath>
</defs>
</svg>
