<svg width="15" height="15" viewBox="0 0 15 15" fill="none" xmlns="http://www.w3.org/2000/svg">
<g clip-path="url(#clip0_8_51)">
<path d="M7.50422 0C7.63899 0 7.77376 0.0292969 7.8968 0.0849609L13.4134 2.42578C14.0579 2.69824 14.5384 3.33398 14.5355 4.10156C14.5208 7.00781 13.3255 12.3252 8.27766 14.7422C7.7884 14.9766 7.22005 14.9766 6.73079 14.7422C1.68294 12.3252 0.487623 7.00781 0.472975 4.10156C0.470045 3.33398 0.950514 2.69824 1.59504 2.42578L7.11458 0.0849609C7.23469 0.0292969 7.36946 0 7.50422 0ZM7.50422 1.95703V13.0312C11.5472 11.0742 12.6341 6.74121 12.6605 4.14258L7.50422 1.95703Z" fill="#2F2D2D" fill-opacity="0.4"/>
</g>
<defs>
<clipPath id="clip0_8_51">
<rect width="15" height="15" fill="white" transform="translate(0.00421143)"/>
</clipPath>
</defs>
</svg>
