<svg width="17" height="12" viewBox="0 0 17 12" fill="none" xmlns="http://www.w3.org/2000/svg">
<path d="M16.1161 5.83455L16.1161 5.83454L16.1155 5.83305C16.0897 5.77447 15.552 4.56355 14.3504 3.34091C13.2359 2.20682 11.3136 0.85 8.5 0.85C5.68638 0.85 3.76414 2.20682 2.64958 3.34091C1.448 4.56355 0.910266 5.77447 0.884512 5.83305L0.884504 5.83305L0.883863 5.83455C0.861501 5.88695 0.85 5.94337 0.85 6.00033C0.85 6.05729 0.861501 6.11371 0.883863 6.16611L0.88386 6.16611L0.884224 6.16695C0.910278 6.22699 1.4481 7.43721 2.64958 8.65975C3.76678 9.79653 5.68709 11.15 8.5 11.15C11.3129 11.15 13.2358 9.79387 14.3504 8.65975C15.5519 7.43721 16.0897 6.22699 16.1158 6.16695L16.1161 6.16611C16.1385 6.11371 16.15 6.05729 16.15 6.00033C16.15 5.94337 16.1385 5.88695 16.1161 5.83455ZM15.2855 6.00001C14.8916 6.75164 14.3924 7.44088 13.8035 8.04605H13.8011L13.7571 8.09075C12.2929 9.57607 10.5252 10.3237 8.49741 10.3237C6.4698 10.3237 4.70459 9.57423 3.23765 8.09065C2.63063 7.47465 2.11728 6.77003 1.71448 6.00006C2.11806 5.22987 2.6323 4.52518 3.24026 3.90933C4.70719 2.42577 6.47239 1.67632 8.5 1.67632C10.5276 1.67632 12.2928 2.42578 13.7598 3.90936C14.3676 4.52526 14.8818 5.2299 15.2855 6.00001ZM8.50017 2.95526H8.5C7.90708 2.95526 7.3277 3.13418 6.83513 3.46907C6.34259 3.80394 5.9591 4.27962 5.73274 4.83568C5.50639 5.39171 5.4472 6.0034 5.56256 6.59351C5.67793 7.18364 5.96274 7.72605 6.38138 8.15203C6.80005 8.57803 7.33378 8.86845 7.91523 8.98613C8.4967 9.10382 9.09938 9.0434 9.64695 8.81261C10.1945 8.58184 10.6621 8.19123 10.9908 7.69057C11.3196 7.18993 11.4949 6.60162 11.4949 6V5.99983C11.494 5.19348 11.1788 4.41989 10.6177 3.84893C10.0565 3.27788 9.29499 2.95618 8.50017 2.95526ZM8.5 8.21842C8.06989 8.21842 7.64922 8.08866 7.29117 7.84522C6.93309 7.60177 6.65361 7.25546 6.48848 6.8498C6.32333 6.44411 6.28008 5.99756 6.3643 5.56672C6.44852 5.13589 6.65635 4.7405 6.9611 4.43041C7.26582 4.12035 7.65374 3.9095 8.07566 3.82411C8.49756 3.73871 8.9349 3.78252 9.33249 3.95009C9.73011 4.11767 10.0704 4.40165 10.31 4.76651C10.5496 5.1314 10.6776 5.56066 10.6776 6C10.6776 6.58919 10.4476 7.15374 10.0389 7.56959C9.63031 7.98534 9.0767 8.21842 8.5 8.21842Z" fill="black" stroke="black" stroke-width="0.3"/>
</svg>
