<svg width="15" height="18" viewBox="0 0 15 18" fill="none" xmlns="http://www.w3.org/2000/svg">
<g clip-path="url(#clip0_8_47)">
<path d="M10.1836 4.28571C10.1836 3.57531 9.90143 2.89401 9.3991 2.39168C8.89677 1.88935 8.21547 1.60714 7.50507 1.60714C6.79466 1.60714 6.11336 1.88935 5.61103 2.39168C5.1087 2.89401 4.82649 3.57531 4.82649 4.28571C4.82649 4.99612 5.1087 5.67742 5.61103 6.17975C6.11336 6.68208 6.79466 6.96429 7.50507 6.96429C8.21547 6.96429 8.89677 6.68208 9.3991 6.17975C9.90143 5.67742 10.1836 4.99612 10.1836 4.28571ZM3.21935 4.28571C3.21935 3.14907 3.67088 2.05898 4.47461 1.25526C5.27834 0.451529 6.36842 0 7.50507 0C8.64171 0 9.7318 0.451529 10.5355 1.25526C11.3393 2.05898 11.7908 3.14907 11.7908 4.28571C11.7908 5.42236 11.3393 6.51244 10.5355 7.31617C9.7318 8.1199 8.64171 8.57143 7.50507 8.57143C6.36842 8.57143 5.27834 8.1199 4.47461 7.31617C3.67088 6.51244 3.21935 5.42236 3.21935 4.28571ZM1.65574 15.5357H13.3544C13.0564 13.4163 11.235 11.7857 9.0352 11.7857H5.97493C3.77516 11.7857 1.95373 13.4163 1.65574 15.5357ZM0.00506592 16.1484C0.00506592 12.8504 2.67694 10.1786 5.97493 10.1786H9.0352C12.3332 10.1786 15.0051 12.8504 15.0051 16.1484C15.0051 16.6975 14.5598 17.1429 14.0106 17.1429H0.999486C0.450378 17.1429 0.00506592 16.6975 0.00506592 16.1484Z" fill="#2F2D2D" fill-opacity="0.4"/>
</g>
<defs>
<clipPath id="clip0_8_47">
<rect width="15" height="17.1429" fill="white" transform="translate(0.00506592)"/>
</clipPath>
</defs>
</svg>
